<svg xmlns="http://www.w3.org/2000/svg" viewBox="0 0 185 40">
        <defs>
          <clipPath id="squareClip">
            <rect x="0" y="0" width="40" height="40" rx="15" />
          </clipPath>
        </defs>
        <g clip-path="url(#squareClip)">
          <rect x="0" y="0" width="40" height="40" fill="#C0FFC3" />
          <g transform="translate(20 20)">
            <g transform="scale(0.08)">
              <g transform="translate(-128 -128)">
                <path d="M240,56V200a8,8,0,0,1-8,8H160a24,24,0,0,0-24,23.94,7.9,7.9,0,0,1-5.12,7.55A8,8,0,0,1,120,232a24,24,0,0,0-24-24H24a8,8,0,0,1-8-8V56a8,8,0,0,1,8-8H88a32,32,0,0,1,32,32v87.73a8.17,8.17,0,0,0,7.47,8.25,8,8,0,0,0,8.53-8V80a32,32,0,0,1,32-32h64A8,8,0,0,1,240,56Z" fill="#177DB8"></path>
              </g>
            </g>
          </g>
        </g>
        <path fill="#177DB8" d="M52.22 29.29L52.22 29.29Q50.50 29.29 49.08 28.68Q47.66 28.06 46.84 26.88Q46.01 25.69 45.98 23.94L45.98 23.94L48.84 23.94Q48.86 25.28 49.78 26.13Q50.69 26.98 52.20 26.98L52.20 26.98Q53.54 26.98 54.36 26.36Q55.18 25.74 55.18 24.61L55.18 24.61Q55.18 23.96 54.96 23.52Q54.74 23.07 54.24 22.72Q53.74 22.38 52.90 22.05Q52.06 21.73 50.76 21.30L50.76 21.30Q49.25 20.79 48.29 20.13Q47.33 19.47 46.88 18.60Q46.44 17.72 46.44 16.64L46.44 16.64Q46.44 15.10 47.17 14.05Q47.90 12.99 49.16 12.45Q50.42 11.91 51.96 11.91L51.96 11.91Q53.52 11.91 54.77 12.46Q56.02 13.02 56.78 14.08Q57.55 15.15 57.58 16.69L57.58 16.69L54.67 16.69Q54.67 15.66 53.90 14.94Q53.14 14.22 51.86 14.22L51.86 14.22Q50.78 14.19 50.03 14.77Q49.27 15.34 49.27 16.45L49.27 16.45Q49.27 17.22 49.76 17.72Q50.26 18.22 51.17 18.61Q52.08 18.99 53.38 19.45L53.38 19.45Q54.17 19.71 55.00 20.07Q55.82 20.43 56.51 21.00Q57.19 21.56 57.62 22.39Q58.06 23.22 58.06 24.44L58.06 24.44Q58.06 25.95 57.28 27.04Q56.50 28.14 55.18 28.71Q53.86 29.29 52.22 29.29ZM60.62 15.20L60.62 15.20Q59.88 15.20 59.35 14.67Q58.82 14.14 58.82 13.40L58.82 13.40Q58.82 12.66 59.35 12.14Q59.88 11.62 60.62 11.62L60.62 11.62Q61.37 11.62 61.90 12.14Q62.42 12.66 62.42 13.40L62.42 13.40Q62.42 14.14 61.90 14.67Q61.37 15.20 60.62 15.20ZM61.99 29L59.26 29L59.26 17.10L61.99 17.10L61.99 29ZM66.17 29L63.46 29L63.46 17.10L66.10 17.10L66.14 18.58Q66.74 17.70 67.68 17.25Q68.62 16.81 69.72 16.81L69.72 16.81Q71.09 16.81 72.20 17.37Q73.32 17.94 73.92 19.14L73.92 19.14Q74.54 18.03 75.61 17.42Q76.68 16.81 77.95 16.81L77.95 16.81Q79.34 16.81 80.44 17.37Q81.53 17.94 82.15 19.09Q82.78 20.24 82.78 21.99L82.78 21.99L82.78 29L80.09 29L80.09 22.35Q80.09 20.84 79.40 20Q78.72 19.16 77.38 19.16L77.38 19.16Q76.01 19.16 75.24 20.06Q74.47 20.96 74.47 22.54L74.47 22.54L74.47 29L71.78 29L71.78 22.35Q71.78 20.82 71.08 19.99Q70.37 19.16 69.05 19.16L69.05 19.16Q67.87 19.16 67.02 19.99Q66.17 20.82 66.17 22.54L66.17 22.54L66.17 29ZM86.62 34.28L83.90 34.28L83.90 17.10L86.54 17.10L86.62 18.85Q87.26 17.94 88.32 17.37Q89.38 16.81 90.74 16.81L90.74 16.81Q92.50 16.81 93.76 17.64Q95.02 18.46 95.70 19.88Q96.38 21.30 96.38 23.02L96.38 23.02Q96.38 24.75 95.69 26.18Q94.99 27.61 93.73 28.45Q92.47 29.29 90.72 29.29L90.72 29.29Q89.23 29.29 88.19 28.68Q87.14 28.06 86.62 27.25L86.62 27.25L86.62 34.28ZM90.12 26.91L90.12 26.91Q91.15 26.91 91.94 26.40Q92.74 25.88 93.18 24.99Q93.62 24.10 93.62 23.02L93.62 23.02Q93.62 21.85 93.16 20.98Q92.69 20.12 91.90 19.65Q91.10 19.18 90.12 19.18L90.12 19.18Q89.11 19.18 88.32 19.68Q87.53 20.17 87.07 21.04Q86.62 21.92 86.62 23.05L86.62 23.05Q86.62 24.13 87.06 25.00Q87.50 25.88 88.28 26.40Q89.06 26.91 90.12 26.91ZM99.94 29L97.22 29L97.22 12.20L99.94 12.20L99.94 29ZM106.80 29.29L106.80 29.29Q105.00 29.29 103.66 28.48Q102.31 27.68 101.56 26.28Q100.80 24.87 100.80 23.05L100.80 23.05Q100.80 21.15 101.56 19.76Q102.31 18.37 103.67 17.59Q105.02 16.81 106.82 16.81L106.82 16.81Q108.58 16.81 109.87 17.56Q111.17 18.32 111.91 19.64Q112.66 20.96 112.66 22.64L112.66 22.64Q112.66 22.98 112.64 23.24Q112.63 23.50 112.58 23.82L112.58 23.82L103.54 23.82Q103.61 24.75 104.02 25.48Q104.42 26.22 105.13 26.62Q105.84 27.03 106.75 27.03L106.75 27.03Q107.74 27.03 108.42 26.60Q109.10 26.17 109.49 25.35L109.49 25.35L112.34 25.35Q112.01 26.43 111.28 27.32Q110.54 28.21 109.43 28.75Q108.31 29.29 106.80 29.29ZM103.56 21.92L103.56 21.92L109.87 21.92Q109.85 20.60 108.94 19.83Q108.02 19.06 106.75 19.06L106.75 19.06Q105.60 19.06 104.68 19.76Q103.75 20.46 103.56 21.92ZM123.94 29L113.76 29L113.76 12.20L116.50 12.20L116.50 26.72L123.94 26.72L123.94 29ZM128.06 29L125.33 29L125.33 12.20L128.54 12.20L133.68 23.31L138.72 12.20L141.96 12.20L141.96 29L139.22 29L139.22 17.07L134.71 26.77L132.58 26.77L128.06 17.07L128.06 29ZM149.59 29.29L149.59 29.29Q147.86 29.29 146.45 28.68Q145.03 28.06 144.20 26.88Q143.38 25.69 143.35 23.94L143.35 23.94L146.21 23.94Q146.23 25.28 147.14 26.13Q148.06 26.98 149.57 26.98L149.57 26.98Q150.91 26.98 151.73 26.36Q152.54 25.74 152.54 24.61L152.54 24.61Q152.54 23.96 152.33 23.52Q152.11 23.07 151.61 22.72Q151.10 22.38 150.26 22.05Q149.42 21.73 148.13 21.30L148.13 21.30Q146.62 20.79 145.66 20.13Q144.70 19.47 144.25 18.60Q143.81 17.72 143.81 16.64L143.81 16.64Q143.81 15.10 144.54 14.05Q145.27 12.99 146.53 12.45Q147.79 11.91 149.33 11.91L149.33 11.91Q150.89 11.91 152.14 12.46Q153.38 13.02 154.15 14.08Q154.92 15.15 154.94 16.69L154.94 16.69L152.04 16.69Q152.04 15.66 151.27 14.94Q150.50 14.22 149.23 14.22L149.23 14.22Q148.15 14.19 147.40 14.77Q146.64 15.34 146.64 16.45L146.64 16.45Q146.64 17.22 147.13 17.72Q147.62 18.22 148.54 18.61Q149.45 18.99 150.74 19.45L150.74 19.45Q151.54 19.71 152.36 20.07Q153.19 20.43 153.88 21.00Q154.56 21.56 154.99 22.39Q155.42 23.22 155.42 24.44L155.42 24.44Q155.42 25.95 154.64 27.04Q153.86 28.14 152.54 28.71Q151.22 29.29 149.59 29.29Z"/>
      </svg>